<?xml version="1.0" standalone="no"?><!DOCTYPE svg PUBLIC "-//W3C//DTD SVG 1.1//EN" "http://www.w3.org/Graphics/SVG/1.1/DTD/svg11.dtd"><svg class="icon" width="128px" height="128.00px" viewBox="0 0 1024 1024" version="1.1" xmlns="http://www.w3.org/2000/svg"><path fill="#707070" d="M463.313649 678.81733 827.694567 678.81733 827.694567 601.533153l-55.233975 0c215.042681-228.459249 28.206412-318.640154-242.921635-276.036847l0-44.173059c108.961644-29.253254 253.981529-22.119787 253.981529-22.119787l0-88.347141c0 0-143.580093 4.842285-253.981529 44.174082l0-77.287247-132.487454 0L397.051503 358.610494c-137.26527 20.614503-233.857189-9.489118-233.857189-9.489118S163.325297 678.81733 463.313649 678.81733zM636.211465 551.60195c-158.436452 183.693696-314.842665-10.276041-328.193741-68.716035C491.844449 521.431813 935.217443 204.886367 636.211465 551.60195zM668.244019 707.547675l0.098237 0.391926-0.128937-0.25992c0 0-86.579891 76.695776-156.342768 76.695776-71.00517 0-120.80539-90.047876-244.032946-75.844386C163.292552 720.635761 64.638671 775.412318 64.638671 775.412318l0.720408 0.982374c2.028193 8.899694 18.585287 73.946153 76.698846 105.231693l-0.065492-0.327458 0.522909 0.650823c0 0 72.281233-97.113805 145.543817-97.113805 120.806413 0 129.640616 86.447884 240.433978 86.843904 117.600395 0.390903 208.957079-57.852616 208.957079-57.852616l-0.261966-0.459464 0.391926 0.132006C727.044216 740.006947 668.244019 707.547675 668.244019 707.547675zM877.332081 711.868073c-45.712111 0-82.817194 37.103036-82.817194 82.851986 0 45.74281 37.105083 82.845847 82.817194 82.845847s82.817194-37.103036 82.817194-82.845847C960.148251 748.970086 923.043169 711.868073 877.332081 711.868073z" /></svg>